<svg width="121" height="25" viewBox="0 0 121 25" fill="none" xmlns="http://www.w3.org/2000/svg">
<path d="M81.4935 13.2045V19H80.4189V9.72727H81.4633V11.1822H81.5599C81.7773 10.7073 82.1153 10.3269 82.5741 10.0412C83.037 9.75142 83.6085 9.60653 84.2886 9.60653C84.9124 9.60653 85.4598 9.73733 85.9307 9.99893C86.4056 10.2565 86.7738 10.6368 87.0354 11.1399C87.301 11.643 87.4339 12.2608 87.4339 12.9932V19H86.3593V13.0597C86.3593 12.299 86.146 11.6973 85.7194 11.2546C85.2968 10.8119 84.7293 10.5906 84.017 10.5906C83.53 10.5906 83.0973 10.6952 82.719 10.9045C82.3407 11.1138 82.0409 11.4156 81.8195 11.81C81.6022 12.2004 81.4935 12.6652 81.4935 13.2045Z" fill="#6100FF"/>
<path d="M94.0126 19.1932C93.1473 19.1932 92.3987 18.9919 91.7669 18.5895C91.135 18.183 90.646 17.6216 90.2999 16.9052C89.9578 16.1848 89.7868 15.3557 89.7868 14.418C89.7868 13.4843 89.9578 12.6552 90.2999 11.9307C90.646 11.2023 91.1229 10.6328 91.7306 10.2223C92.3424 9.80776 93.0487 9.60049 93.8496 9.60049C94.3527 9.60049 94.8377 9.69306 95.3045 9.87819C95.7714 10.0593 96.1899 10.339 96.5602 10.7173C96.9345 11.0916 97.2303 11.5645 97.4476 12.136C97.6649 12.7035 97.7736 13.3756 97.7736 14.1523V14.6836H90.5293V13.7358H96.6749C96.6749 13.1401 96.5542 12.6049 96.3127 12.13C96.0752 11.651 95.7432 11.2727 95.3166 10.995C94.894 10.7173 94.405 10.5785 93.8496 10.5785C93.262 10.5785 92.7449 10.7354 92.2981 11.0494C91.8514 11.3633 91.5012 11.7778 91.2477 12.293C90.9982 12.8081 90.8714 13.3716 90.8674 13.9833V14.5508C90.8674 15.2873 90.9941 15.9312 91.2477 16.4826C91.5053 17.0299 91.8695 17.4545 92.3404 17.7564C92.8113 18.0582 93.3687 18.2092 94.0126 18.2092C94.4513 18.2092 94.8356 18.1407 95.1657 18.0039C95.4997 17.8671 95.7794 17.6839 96.0048 17.4545C96.2342 17.2211 96.4073 16.9656 96.524 16.6879L97.5442 17.0199C97.4034 17.4103 97.1719 17.7705 96.85 18.1005C96.532 18.4305 96.1336 18.6961 95.6547 18.8974C95.1797 19.0946 94.6324 19.1932 94.0126 19.1932Z" fill="#6100FF"/>
<path d="M102.2 19L99.3991 9.72727H100.534L102.731 17.3761H102.81L105.001 9.72727H106.142L108.316 17.358H108.4L110.598 9.72727H111.733L108.931 19H107.821L105.623 11.3995H105.508L103.311 19H102.2Z" fill="#6100FF"/>
<path d="M120.051 11.7617L119.067 12.0394C118.971 11.7617 118.834 11.5102 118.657 11.2848C118.48 11.0594 118.248 10.8803 117.963 10.7475C117.681 10.6147 117.331 10.5483 116.912 10.5483C116.284 10.5483 115.769 10.6972 115.367 10.995C114.964 11.2928 114.763 11.6772 114.763 12.1481C114.763 12.5465 114.9 12.8705 115.174 13.12C115.451 13.3655 115.878 13.5607 116.453 13.7056L117.854 14.0497C118.631 14.2389 119.212 14.5387 119.599 14.9492C119.989 15.3597 120.184 15.8749 120.184 16.4947C120.184 17.0179 120.039 17.4827 119.75 17.8892C119.46 18.2957 119.055 18.6156 118.536 18.8491C118.021 19.0785 117.423 19.1932 116.743 19.1932C115.838 19.1932 115.091 18.9899 114.503 18.5834C113.916 18.1729 113.54 17.5813 113.375 16.8086L114.407 16.555C114.54 17.1064 114.799 17.523 115.186 17.8047C115.576 18.0864 116.089 18.2273 116.725 18.2273C117.437 18.2273 118.007 18.0683 118.434 17.7504C118.86 17.4284 119.073 17.0259 119.073 16.543C119.073 16.1687 118.949 15.8548 118.699 15.6012C118.45 15.3436 118.071 15.1545 117.564 15.0337L116.049 14.6715C115.244 14.4783 114.648 14.1725 114.262 13.7539C113.876 13.3353 113.682 12.8162 113.682 12.1964C113.682 11.6852 113.821 11.2365 114.099 10.8501C114.377 10.4598 114.759 10.1539 115.246 9.93253C115.733 9.71117 116.288 9.60049 116.912 9.60049C117.761 9.60049 118.44 9.79368 118.947 10.18C119.458 10.5624 119.826 11.0896 120.051 11.7617Z" fill="#6100FF"/>
<path d="M35.7396 15.2728H33.4679V19.1068H30.4668V6.46484H35.8986C39.134 6.46484 40.3332 7.68074 40.3332 10.0535V11.7046C40.3332 14.0773 38.9774 15.2728 35.7396 15.2728ZM37.3369 10.3182C37.3369 9.40914 36.9986 8.98869 35.7396 8.98869H33.4679V12.8046H35.7396C37.0548 12.8046 37.3369 12.3307 37.3369 11.4205V10.3182Z" fill="#6100FF"/>
<path d="M45.8279 19.2966C44.2903 19.2966 42.6726 18.9739 41.5332 18.4796L42.033 16.2785C43.2513 16.6387 44.49 16.8864 45.8674 16.8864C47.405 16.8864 47.7051 16.6012 47.7051 15.5387C47.7051 14.4024 47.6453 14.2671 45.4681 13.8114C42.253 13.1467 41.7735 12.5387 41.7735 9.80578C41.7735 7.28079 42.7121 6.27512 46.3672 6.27512C47.7236 6.27999 49.0757 6.42015 50.4013 6.6933L50.1024 9.07965C48.5851 8.83306 47.6047 8.71942 46.4078 8.71942C45.0687 8.71942 44.7686 8.9467 44.7686 9.87737C44.7686 11.0921 44.8296 11.1115 46.9208 11.5819C50.5149 12.399 50.6954 13.0592 50.6954 15.5478C50.7014 18.0682 49.8417 19.2966 45.8279 19.2966Z" fill="#6100FF"/>
<path d="M57.6381 19.1069L57.4384 18.5228C56.3193 19.1114 55.3209 19.3012 54.6633 19.3012C52.8699 19.3012 52.125 18.0683 52.125 16.4921C52.125 14.6319 53.0253 13.8921 55.022 13.8921H57.1192V13.1819C57.1192 12.2319 56.9398 11.9092 55.4011 11.9092C54.5152 11.9158 53.6322 12.0048 52.7647 12.1751L52.3857 10.1297C53.3039 9.86261 54.7626 9.67511 55.8817 9.67511C59.257 9.67511 59.9947 10.6422 59.9947 13.2046V19.108L57.6381 19.1069ZM57.1192 15.7853H55.7418C55.1213 15.7853 54.8821 15.9376 54.8821 16.4501C54.8821 16.9626 55.1021 17.1705 55.6617 17.1705C56.1671 17.1712 56.6658 17.0612 57.1192 16.8489V15.7853Z" fill="#6100FF"/>
<path d="M67.8021 8.1171C67.3808 8.03832 66.9532 7.99384 66.524 7.98415C65.6045 7.98415 65.5447 8.36369 65.5447 8.9705V10.0534H67.8416L67.6419 12.2921H65.5447V19.1102H62.6692V12.2921H61.1914V10.0534H62.6692V8.6671C62.6692 6.76938 63.6078 5.70575 65.9644 5.70575C66.7822 5.70575 67.3824 5.81938 68.1608 5.97165L67.8021 8.1171Z" fill="#6100FF"/>
<path d="M71.6101 15.4432V15.7091C71.6101 16.7716 72.0489 17.0569 73.3677 17.0569C74.3671 17.0481 75.3609 16.914 76.3233 16.658L76.743 18.7034C75.5659 19.0853 74.3317 19.284 73.0879 19.2921C69.9326 19.2921 68.7334 17.8148 68.7334 15.5341V13.3751C68.7334 11.3808 69.6732 9.67395 72.9086 9.67395C76.144 9.67395 76.8422 11.4921 76.8422 13.5069V15.4387L71.6101 15.4432ZM74.1293 12.9944C74.1293 12.3501 73.9297 11.8183 72.9337 11.8183C71.9377 11.8183 71.6185 12.3501 71.6185 12.9944V13.3932H74.1293V12.9944Z" fill="#6100FF"/>
<path d="M26.2874 3.53079C22.3426 1.20921 17.7918 -0.014023 13.152 0.000121286C8.51233 -0.0138403 3.96152 1.20938 0.0167389 3.53079C0.00637668 3.81563 0.000797094 4.10086 0 4.38646C0 12.9341 5.09582 20.9773 13.152 25C21.2083 20.9773 26.3041 12.9341 26.3041 4.38646C26.3041 4.10123 26.3041 3.81601 26.2874 3.53079ZM24.3911 4.8501C24.2907 8.59659 23.1595 12.2528 21.1102 15.4546C19.2018 18.4556 16.5559 20.9719 13.3995 22.7875L13.152 22.9239L12.9057 22.7818C9.74966 20.9679 7.10343 18.4536 5.19386 15.4546C3.14764 12.2539 2.0186 8.59981 1.919 4.85578L1.91183 4.5785L2.1677 4.44669C5.54125 2.71371 9.31727 1.81016 13.152 1.81829C16.9861 1.80874 20.7619 2.7099 24.1364 4.43987L24.3911 4.57282V4.8501Z" fill="#6100FF"/>
<path d="M13.1522 2.27285C9.39776 2.25952 5.69982 3.14217 2.39746 4.83988C2.49343 8.50469 3.59868 12.0815 5.60297 15.2137C7.46914 18.1536 10.0601 20.6177 13.1522 22.3932C16.2444 20.6177 18.8353 18.1536 20.7015 15.2137C22.7079 12.0821 23.8152 8.5052 23.913 4.83988C20.6089 3.14125 16.9088 2.25856 13.1522 2.27285V2.27285ZM18.5625 9.57849C18.5625 10.2944 18.4796 10.8792 18.3138 11.333C18.1655 11.7665 17.8649 12.1384 17.4625 12.3864C17.0409 12.641 16.5689 12.8108 16.0756 12.8853C15.3957 12.9811 14.7087 13.0241 14.0215 13.0137H12.3691V16.2807C12.3691 16.5012 11.9901 16.6739 11.5836 16.6739C10.1285 16.6739 9.5438 16.4648 9.5438 16.1728V6.16033C9.5438 5.86374 9.78293 5.58078 10.2349 5.58078H14.0215C14.6911 5.57004 15.3604 5.6149 16.0218 5.71487C16.5163 5.79504 16.9885 5.96978 17.4099 6.22851C17.8168 6.48184 18.1267 6.85331 18.2935 7.28759C18.4764 7.74214 18.5673 8.34327 18.5673 9.04895L18.5625 9.57849Z" fill="#6100FF"/>
<path d="M15.2243 8.26258C15.0534 8.12394 14.6947 8.03531 14.0215 8.03531H12.3691V10.5353H14.0215C14.6947 10.5353 15.0641 10.4217 15.2459 10.308C15.4276 10.1944 15.577 9.9353 15.577 9.58757V9.05803C15.577 8.71031 15.485 8.47281 15.2243 8.26258Z" fill="#6100FF"/>
</svg>
